{
    "asset" : {
        "generator" : "Khronos glTF Blender I/O v1.2.75",
        "version" : "2.0"
    },
    "scene" : 0,
    "scenes" : [
        {
            "extras" : {
                "glTF2ExportSettings" : {
                    "export_animations" : 0,
                    "export_apply" : 1,
                    "export_cameras" : 0,
                    "export_extras" : 1,
                    "export_format" : "GLTF_SEPARATE",
                    "export_lights" : 0,
                    "export_morph" : 0,
                    "export_skins" : 0,
                    "export_texture_dir" : "Textures"
                }
            },
            "name" : "Scene",
            "nodes" : [
                0
            ]
        }
    ],
    "nodes" : [
        {
            "mesh" : 0,
            "name" : "MAP_FLOOR",
            "scale" : [
                0.5,
                1,
                0.5
            ]
        }
    ],
    "materials" : [
        {
            "doubleSided" : true,
            "emissiveFactor" : [
                0,
                0,
                0
            ],
            "name" : "\u03a4\u0391\u0392_BG",
            "pbrMetallicRoughness" : {
                "baseColorFactor" : [
                    0.013702084310352802,
                    0.012286488898098469,
                    0.015208518132567406,
                    1
                ],
                "metallicFactor" : 0,
                "roughnessFactor" : 0.012500000186264515
            }
        },
        {
            "doubleSided" : true,
            "emissiveFactor" : [
                0,
                0,
                0
            ],
            "name" : "MAP_FLOOR",
            "pbrMetallicRoughness" : {
                "baseColorTexture" : {
                    "index" : 0,
                    "texCoord" : 0
                },
                "metallicFactor" : 0,
                "roughnessFactor" : 0.20000000298023224
            }
        }
    ],
    "meshes" : [
        {
            "name" : "Cube.001",
            "primitives" : [
                {
                    "attributes" : {
                        "POSITION" : 0,
                        "NORMAL" : 1,
                        "TEXCOORD_0" : 2
                    },
                    "indices" : 3,
                    "material" : 0
                },
                {
                    "attributes" : {
                        "POSITION" : 4,
                        "NORMAL" : 5,
                        "TEXCOORD_0" : 6
                    },
                    "indices" : 7,
                    "material" : 1
                }
            ]
        }
    ],
    "textures" : [
        {
            "source" : 0
        }
    ],
    "images" : [
        {
            "mimeType" : "image/png",
            "name" : "VER_04_GRAPHICS_GROUND_MAP_04_FLOOR_MAP",
            "uri" : "Textures/VER_04_GRAPHICS_GROUND_MAP_04_FLOOR_MAP.png"
        }
    ],
    "accessors" : [
        {
            "bufferView" : 0,
            "componentType" : 5126,
            "count" : 64,
            "max" : [
                31.24264144897461,
                0.17999999225139618,
                31.24264144897461
            ],
            "min" : [
                -31.24264144897461,
                -0.17000000178813934,
                -31.24264144897461
            ],
            "type" : "VEC3"
        },
        {
            "bufferView" : 1,
            "componentType" : 5126,
            "count" : 64,
            "type" : "VEC3"
        },
        {
            "bufferView" : 2,
            "componentType" : 5126,
            "count" : 64,
            "type" : "VEC2"
        },
        {
            "bufferView" : 3,
            "componentType" : 5123,
            "count" : 102,
            "type" : "SCALAR"
        },
        {
            "bufferView" : 4,
            "componentType" : 5126,
            "count" : 4,
            "max" : [
                30,
                0.17999999225139618,
                30
            ],
            "min" : [
                -30,
                0.17999999225139618,
                -30
            ],
            "type" : "VEC3"
        },
        {
            "bufferView" : 5,
            "componentType" : 5126,
            "count" : 4,
            "type" : "VEC3"
        },
        {
            "bufferView" : 6,
            "componentType" : 5126,
            "count" : 4,
            "type" : "VEC2"
        },
        {
            "bufferView" : 7,
            "componentType" : 5123,
            "count" : 6,
            "type" : "SCALAR"
        }
    ],
    "bufferViews" : [
        {
            "buffer" : 0,
            "byteLength" : 768,
            "byteOffset" : 0
        },
        {
            "buffer" : 0,
            "byteLength" : 768,
            "byteOffset" : 768
        },
        {
            "buffer" : 0,
            "byteLength" : 512,
            "byteOffset" : 1536
        },
        {
            "buffer" : 0,
            "byteLength" : 204,
            "byteOffset" : 2048
        },
        {
            "buffer" : 0,
            "byteLength" : 48,
            "byteOffset" : 2252
        },
        {
            "buffer" : 0,
            "byteLength" : 48,
            "byteOffset" : 2300
        },
        {
            "buffer" : 0,
            "byteLength" : 32,
            "byteOffset" : 2348
        },
        {
            "buffer" : 0,
            "byteLength" : 12,
            "byteOffset" : 2380
        }
    ],
    "buffers" : [
        {
            "byteLength" : 2392,
            "uri" : "floor.bin"
        }
    ]
}
